<?xml version="1.0" encoding="iso-8859-1"?>
<!-- Uploaded to: SVG Repo, www.svgrepo.com, Transformed by: SVG Repo Tools -->
<svg version="1.1" id="Layer_1" xmlns="http://www.w3.org/2000/svg" xmlns:xlink="http://www.w3.org/1999/xlink" 
	 viewBox="0 0 512 512" xml:space="preserve">
<circle style="fill:#324A5E;" cx="256" cy="256" r="256"/>
<path style="fill:#2B3B4E;" d="M512,256c0-11.323-0.743-22.469-2.169-33.402l-83.165-83.166l-8.949,5.273l-19.496-19.496
	l-14.779,16.97l14.296,14.296l-51.615,30.413l-61.68-61.68l-32.825,18.604l62.145,62.145l-39.233,23.116L170.667,125.209
	l-29.593,19.97l102.272,102.272l-94.804,55.861l-75.276,35.23l173.265,173.265c3.144,0.114,6.297,0.193,9.469,0.193
	C397.384,512,512,397.384,512,256z"/>
<path style="fill:#FFD15D;" d="M227.556,510.419C236.897,511.452,246.384,512,256,512c9.616,0,19.103-0.548,28.444-1.581V324.32
	h-56.889V510.419z"/>
<path style="fill:#F9B54C;" d="M284.444,324.32h-28.157v187.675c9.518-0.01,18.91-0.555,28.157-1.577V324.32z"/>
<rect x="85.333" y="139.431" style="fill:#FFFFFF;" width="341.333" height="199.111"/>
<rect x="256.293" y="139.431" style="fill:#E6F3FF;" width="170.374" height="199.111"/>
<rect x="73.266" y="310.096" style="fill:#FD8469;" width="365.468" height="28.444"/>
<rect x="256.293" y="310.096" style="fill:#FC6F58;" width="182.441" height="28.444"/>
<g>
	<rect x="113.778" y="125.207" style="fill:#FFD15D;" width="56.889" height="28.444"/>
	<rect x="227.556" y="125.207" style="fill:#FFD15D;" width="56.889" height="28.444"/>
</g>
<g>
	<rect x="256.293" y="125.207" style="fill:#F9B54C;" width="28.157" height="28.444"/>
	<rect x="341.333" y="125.207" style="fill:#F9B54C;" width="56.889" height="28.444"/>
</g>
<rect x="184.458" y="215.143" style="fill:#CFDBE6;" width="143.084" height="47.695"/>
<rect x="256" y="215.143" style="fill:#B8C9D9;" width="71.542" height="47.695"/>
<g>
</g>
<g>
</g>
<g>
</g>
<g>
</g>
<g>
</g>
<g>
</g>
<g>
</g>
<g>
</g>
<g>
</g>
<g>
</g>
<g>
</g>
<g>
</g>
<g>
</g>
<g>
</g>
<g>
</g>
</svg>