<?xml version="1.0" encoding="iso-8859-1"?>
<!-- Uploaded to: SVG Repo, www.svgrepo.com, Transformed by: SVG Repo Tools -->
<svg version="1.1" id="Layer_1" xmlns="http://www.w3.org/2000/svg" xmlns:xlink="http://www.w3.org/1999/xlink" 
	 viewBox="0 0 512.002 512.002" xml:space="preserve">
<circle style="fill:#B5F1F4;" cx="256.001" cy="256" r="256"/>
<path style="fill:#4CDBC4;" d="M511.932,261.38l-117.11-117.11L237.934,329.833L89.227,367.656l143.26,143.26
	c7.745,0.705,15.586,1.086,23.516,1.086C395.587,512,509.069,400.279,511.932,261.38z"/>
<path style="fill:#324A5E;" d="M398.223,319.785H113.779V152.71c0-6.744,5.467-12.212,12.212-12.212h260.022
	c6.744,0,12.21,5.467,12.21,12.212V319.785z"/>
<path style="fill:#2B3B4E;" d="M398.223,152.709c0-6.744-5.467-12.21-12.21-12.21H255.429v179.286h142.795V152.709z"/>
<rect x="132.742" y="159.461" style="fill:#E6F3FF;" width="246.519" height="158.599"/>
<rect x="255.432" y="159.461" style="fill:#CFDBE6;" width="123.833" height="158.599"/>
<path style="fill:#3C5668;" d="M416.61,369.778H95.39c-5.554,0-10.057-4.503-10.057-10.056v-36.776
	c0-5.554,4.503-10.056,10.057-10.056h321.22c5.554,0,10.056,4.503,10.056,10.056v36.776
	C426.668,365.275,422.165,369.778,416.61,369.778z"/>
<path style="fill:#324A5E;" d="M416.61,312.889H255.427v56.889H416.61c5.554,0,10.056-4.503,10.056-10.056v-36.776
	C426.668,317.392,422.165,312.889,416.61,312.889z"/>
<rect x="152.997" y="177.131" style="fill:#FD8469;" width="85.333" height="50.424"/>
<g>
	<rect x="248.243" y="176.7" style="fill:#CFDBE6;" width="113.778" height="6.896"/>
	<rect x="248.243" y="198.68" style="fill:#CFDBE6;" width="113.778" height="6.896"/>
	<rect x="248.243" y="220.66" style="fill:#CFDBE6;" width="113.778" height="6.896"/>
	<rect x="153.428" y="242.64" style="fill:#CFDBE6;" width="208.593" height="6.896"/>
	<rect x="153.428" y="264.62" style="fill:#CFDBE6;" width="208.593" height="6.896"/>
	<rect x="153.428" y="286.599" style="fill:#CFDBE6;" width="208.593" height="6.896"/>
</g>
<g>
	<rect x="255.432" y="176.7" style="fill:#B8C9D9;" width="106.594" height="6.896"/>
	<rect x="255.432" y="198.68" style="fill:#B8C9D9;" width="106.594" height="6.896"/>
	<rect x="255.432" y="220.66" style="fill:#B8C9D9;" width="106.594" height="6.896"/>
	<rect x="255.432" y="242.64" style="fill:#B8C9D9;" width="106.594" height="6.896"/>
	<rect x="255.432" y="264.62" style="fill:#B8C9D9;" width="106.594" height="6.896"/>
	<rect x="255.432" y="286.599" style="fill:#B8C9D9;" width="106.594" height="6.896"/>
</g>
<g>
</g>
<g>
</g>
<g>
</g>
<g>
</g>
<g>
</g>
<g>
</g>
<g>
</g>
<g>
</g>
<g>
</g>
<g>
</g>
<g>
</g>
<g>
</g>
<g>
</g>
<g>
</g>
<g>
</g>
</svg>